<svg width="44" height="44" viewBox="0 0 44 44" fill="none" xmlns="http://www.w3.org/2000/svg">
<path d="M18.3333 25.9333L29.15 15.1167C29.4861 14.7805 29.9139 14.6125 30.4333 14.6125C30.9528 14.6125 31.3806 14.7805 31.7167 15.1167C32.0528 15.4528 32.2208 15.8805 32.2208 16.4C32.2208 16.9194 32.0528 17.3472 31.7167 17.6833L19.6167 29.7833C19.25 30.15 18.8222 30.3333 18.3333 30.3333C17.8445 30.3333 17.4167 30.15 17.05 29.7833L12.2833 25.0167C11.9472 24.6805 11.7792 24.2528 11.7792 23.7333C11.7792 23.2139 11.9472 22.7861 12.2833 22.45C12.6195 22.1139 13.0472 21.9458 13.5667 21.9458C14.0861 21.9458 14.5139 22.1139 14.85 22.45L18.3333 25.9333Z" fill="white"></path>
</svg>
