<svg width="36" height="36" viewBox="0 0 36 36" fill="none" xmlns="http://www.w3.org/2000/svg">
<g clip-path="url('#clip0_56_98')">
<path d="M18 3C26.2845 3 33 9.7155 33 18C33 26.2845 26.2845 33 18 33C9.7155 33 3 26.2845 3 18C3 9.7155 9.7155 3 18 3ZM20.5245 23.925C18.843 24.0246 17.157 24.0246 15.4755 23.925C15.6795 25.104 15.939 26.166 16.2405 27.072C16.6185 28.206 17.0355 29.016 17.4255 29.511C17.5575 29.676 17.76 30 18.003 30C18.2205 29.9805 18.456 29.6595 18.573 29.511C18.963 29.016 19.3815 28.206 19.758 27.072C20.0917 26.0437 20.3489 24.9917 20.5245 23.925ZM29.2695 22.1325C28.872 22.3035 28.4535 22.461 28.02 22.605C26.742 23.031 25.248 23.373 23.61 23.61C23.4048 25.1066 23.0685 26.5823 22.605 28.02C22.461 28.455 22.3035 28.872 22.1325 29.2695C23.7679 28.6676 25.2531 27.7176 26.4854 26.4854C27.7176 25.2531 28.6676 23.7679 29.2695 22.1325ZM6.7305 22.1325C7.33244 23.7679 8.28237 25.2531 9.51463 26.4854C10.7469 27.7176 12.2321 28.6676 13.8675 29.2695C13.6925 28.8598 13.5349 28.443 13.395 28.02C12.9315 26.5823 12.5952 25.1066 12.39 23.61C10.8934 23.4048 9.41773 23.0685 7.98 22.605C7.545 22.461 7.128 22.3035 6.7305 22.1325ZM15.108 15.108C14.9622 17.0332 14.9622 18.9668 15.108 20.892C17.031 21.0375 18.969 21.0375 20.892 20.892C21.0378 18.9668 21.0378 17.0332 20.892 15.108C18.9668 14.9622 17.0332 14.9622 15.108 15.108ZM23.925 15.4755C24.0246 17.157 24.0246 18.843 23.925 20.5245C24.9916 20.3484 26.0436 20.0927 27.072 19.7595C28.206 19.3815 29.016 18.9645 29.511 18.5745C29.676 18.444 30 18.2385 30 17.997C29.9805 17.7795 29.6595 17.544 29.511 17.427C29.016 17.037 28.206 16.6185 27.072 16.242C26.0436 15.9088 24.9916 15.6516 23.925 15.4755ZM12.075 15.4755C10.896 15.6795 9.8355 15.939 8.928 16.2405C7.794 16.6185 6.9855 17.0355 6.489 17.4255C6.129 17.7105 6.021 17.925 6.0045 17.9775C5.937 18.2025 6.3495 18.462 6.489 18.573C6.984 18.963 7.794 19.3815 8.928 19.758C9.8355 20.061 10.896 20.3205 12.075 20.523C11.9753 18.8425 11.9753 17.156 12.075 15.4755ZM13.8675 6.7305C12.2321 7.33252 10.747 8.28249 9.51474 9.51474C8.28249 10.747 7.33252 12.2321 6.7305 13.8675C7.128 13.6965 7.5465 13.539 7.98 13.395C9.41773 12.9315 10.8934 12.5952 12.39 12.39C12.627 10.752 12.969 9.258 13.395 7.98C13.539 7.545 13.6965 7.128 13.8675 6.7305ZM22.1325 6.7305C22.3035 7.128 22.461 7.5465 22.605 7.98C23.031 9.258 23.373 10.752 23.61 12.39C25.248 12.627 26.742 12.969 28.02 13.395C28.455 13.539 28.872 13.6965 29.2695 13.8675C28.6676 12.2321 27.7176 10.7469 26.4854 9.51463C25.2531 8.28237 23.7679 7.33244 22.1325 6.7305ZM18 6C17.7915 6 17.532 6.3555 17.427 6.489C17.037 6.984 16.6185 7.794 16.242 8.928C15.9088 9.95644 15.6531 11.0084 15.477 12.075C17.1575 11.9753 18.8425 11.9753 20.523 12.075C20.3469 11.0084 20.0912 9.95644 19.758 8.928C19.3815 7.794 18.963 6.9855 18.573 6.489C18.468 6.354 18.21 6 18 6Z" fill="#FFD203"></path>
</g>
<defs>
<clipPath id="clip0_56_98">
<rect width="36" height="36" fill="white"></rect>
</clipPath>
</defs>
</svg>
